<?xml version="1.0" standalone="no"?>
<!DOCTYPE svg PUBLIC "-//W3C//DTD SVG 20010904//EN"
 "http://www.w3.org/TR/2001/REC-SVG-20010904/DTD/svg10.dtd">
<svg version="1.0" xmlns="http://www.w3.org/2000/svg"
 width="300.000000pt" height="300.000000pt" viewBox="0 0 300.000000 300.000000"
 preserveAspectRatio="xMidYMid meet">
<metadata>
Created by potrace 1.10, written by Peter Selinger 2001-2011
</metadata>
<g transform="translate(0.000000,300.000000) scale(0.100000,-0.100000)"
fill="#000000" stroke="none">
<path d="M1232 2799 c-1 -31 1 -59 5 -62 4 -4 7 -25 8 -47 1 -22 3 -59 5 -82
3 -40 3 -39 12 22 17 129 17 148 -3 143 -15 -4 -18 3 -22 38 -3 41 -4 40 -5
-12z"/>
<path d="M1512 2628 c0 -138 2 -168 14 -168 12 0 18 -19 17 -57 -1 -7 3 -13 9
-13 5 0 8 27 7 60 -1 32 -6 57 -11 54 -4 -3 -6 -10 -3 -15 4 -5 1 -9 -4 -9
-14 0 -12 -12 -21 165 l-7 150 -1 -167z"/>
<path d="M1205 2747 c-3 -12 1 -38 9 -57 15 -34 15 -34 16 -7 0 15 -5 27 -11
27 -7 0 -8 11 -4 30 8 35 -2 41 -10 7z"/>
<path d="M1725 2757 c-4 -9 -2 -37 4 -62 6 -24 11 -62 11 -84 0 -22 5 -43 11
-46 7 -5 10 20 8 79 -1 48 1 89 5 93 3 3 6 13 6 21 0 11 -3 12 -14 3 -11 -9
-15 -9 -19 1 -3 9 -7 8 -12 -5z"/>
<path d="M1304 2748 c-4 -7 -11 -35 -15 -63 -5 -27 -12 -77 -18 -110 -7 -44
-6 -80 4 -135 l14 -75 -5 68 c-4 46 -2 73 6 83 8 8 10 28 7 49 -5 28 -2 35 10
35 14 0 14 2 -1 19 -12 13 -14 21 -6 26 6 4 8 14 5 24 -2 9 -1 32 5 51 10 36
7 50 -6 28z"/>
<path d="M1023 2705 c-3 -9 2 -24 11 -34 9 -10 13 -20 10 -23 -3 -3 -1 -9 5
-13 16 -9 13 18 -4 41 -19 25 -19 32 3 37 16 4 16 5 -1 6 -10 0 -20 -6 -24
-14z"/>
<path d="M1376 2687 c-5 -10 -2 -26 7 -40 11 -17 15 -56 16 -152 1 -71 4 -131
7 -134 3 -3 4 61 2 142 -3 127 -1 147 12 145 9 -2 14 -13 12 -28 -2 -23 -2
-24 9 -6 10 16 8 22 -11 38 -12 10 -26 16 -30 13 -5 -3 -10 5 -13 17 -3 20 -4
21 -11 5z"/>
<path d="M1700 2676 c0 -15 5 -36 10 -46 8 -16 8 -18 -5 -14 -8 4 -15 1 -15
-5 0 -6 4 -11 9 -11 5 0 7 -17 4 -38 -3 -26 -1 -42 10 -50 11 -9 12 -22 6 -55
-4 -23 -8 -53 -7 -67 0 -14 6 8 14 48 12 70 10 114 -10 230 -6 35 -16 39 -16
8z"/>
<path d="M877 2673 c3 -10 10 -24 16 -30 5 -7 6 -13 3 -13 -4 0 2 -13 13 -29
16 -22 21 -44 21 -88 0 -51 4 -63 25 -83 14 -13 25 -28 25 -34 0 -5 -13 3 -30
19 -27 26 -30 35 -30 88 0 51 -4 64 -31 98 -17 21 -28 42 -25 47 2 4 1 14 -5
22 -6 11 -9 7 -9 -16 0 -21 9 -40 30 -60 35 -35 41 -83 11 -91 -14 -3 -17 -9
-11 -17 5 -6 27 -32 48 -57 47 -56 86 -118 79 -125 -2 -3 -18 15 -34 40 -39
59 -90 116 -103 116 -5 0 -10 8 -11 18 0 11 -2 12 -6 4 -3 -7 18 -36 46 -64
49 -49 71 -91 57 -106 -4 -3 -16 0 -27 7 -34 20 -31 7 6 -35 19 -21 34 -33 35
-25 0 11 5 9 21 -5 22 -19 22 -19 11 2 -6 11 -18 27 -27 34 -13 11 -15 10 -9
-6 6 -15 4 -17 -6 -7 -13 12 -6 33 11 33 5 0 23 -19 40 -42 21 -29 29 -35 24
-19 -5 16 -4 21 4 17 6 -4 11 -2 11 5 0 8 4 8 15 -1 13 -11 14 -10 8 6 -6 17
-5 17 10 6 32 -27 39 -2 12 45 -30 55 -30 53 -5 53 12 0 27 -13 39 -37 28 -54
26 -34 -4 34 -32 72 -66 123 -82 123 -15 0 -17 26 -3 35 6 3 13 -2 17 -12 4
-10 19 -34 33 -53 15 -19 37 -61 50 -93 12 -32 24 -56 27 -54 5 5 -34 105 -52
133 -7 11 -16 42 -20 67 -4 26 -11 47 -15 47 -5 0 -11 12 -13 28 -4 27 -4 27
-6 -4 0 -19 -11 -39 -26 -52 -29 -25 -41 -27 -48 -9 -4 9 -6 9 -6 -1 -1 -7 9
-16 22 -21 50 -20 118 -121 81 -121 -15 0 -74 58 -74 72 0 5 -5 8 -10 8 -6 0
7 -26 28 -57 59 -88 84 -133 75 -132 -4 0 -36 43 -70 96 -55 83 -63 101 -63
143 0 30 5 50 13 53 20 7 -6 42 -36 45 -17 2 -34 15 -47 38 -24 37 -33 44 -23
17z m86 -138 c-6 -71 -4 -78 19 -103 34 -37 92 -131 85 -138 -3 -3 -13 8 -22
26 -9 18 -19 29 -22 27 -3 -3 2 -16 11 -29 18 -25 21 -42 6 -33 -5 3 -10 1
-10 -5 0 -6 -4 -8 -10 -5 -5 3 -10 11 -10 16 0 6 5 7 10 4 16 -10 12 4 -15 43
-26 38 -32 58 -15 47 19 -12 9 10 -20 45 -27 31 -30 41 -30 107 0 56 3 73 14
73 12 0 13 -14 9 -75z"/>
<path d="M1610 2667 c-10 -16 -14 -63 -15 -167 -2 -127 -1 -137 7 -75 5 39 7
93 5 120 -3 29 1 68 10 93 16 50 14 61 -7 29z"/>
<path d="M1133 2633 c-7 -2 -13 -12 -13 -21 0 -13 -3 -12 -14 4 -8 10 -18 16
-22 12 -4 -4 -1 -14 6 -23 7 -8 14 -34 17 -58 2 -23 8 -43 13 -45 6 -2 10 -11
10 -20 0 -20 49 -153 62 -167 5 -5 2 10 -7 34 -8 25 -13 53 -9 63 3 11 0 20
-9 24 -8 3 -18 22 -22 42 -4 20 -11 40 -17 43 -11 7 -14 56 -4 66 3 3 12 0 21
-7 12 -10 15 -10 15 4 0 9 -5 16 -11 16 -6 0 -9 9 -6 20 3 11 4 20 4 19 -1 0
-8 -3 -14 -6z"/>
<path d="M1222 2596 c-2 -33 -5 -38 -22 -33 -13 3 -20 0 -20 -9 0 -8 5 -14 11
-14 6 0 9 -6 6 -14 -3 -8 0 -19 7 -25 7 -6 18 -43 25 -82 7 -38 15 -68 18 -66
9 10 -19 133 -35 151 -16 18 -16 18 5 8 16 -9 24 -27 33 -83 7 -38 14 -68 17
-66 7 7 -17 160 -27 172 -5 6 -10 31 -13 55 -3 45 -4 45 -5 6z"/>
<path d="M1930 2593 c0 -11 -5 -24 -10 -29 -6 -6 -12 -27 -14 -47 -2 -20 -9
-44 -16 -52 -7 -9 -11 -18 -8 -21 7 -7 54 57 60 83 3 12 1 24 -4 25 -7 3 -7
11 1 25 7 14 8 24 1 28 -5 3 -10 -2 -10 -12z"/>
<path d="M2061 2603 c1 -5 1 -38 0 -75 -1 -60 -4 -71 -31 -100 -16 -18 -30
-28 -30 -22 0 6 9 19 20 29 16 14 20 30 19 74 l-2 56 -6 -55 c-5 -43 -15 -66
-45 -105 -46 -60 -51 -65 -43 -42 13 36 -10 15 -31 -28 -24 -50 -21 -62 3 -14
9 17 19 28 22 25 3 -3 -4 -21 -15 -40 -27 -46 -8 -61 25 -20 24 30 31 27 13
-7 -25 -45 2 -13 48 59 27 42 62 88 76 101 14 14 26 30 26 37 0 7 6 14 13 17
6 3 2 4 -10 4 -16 -1 -24 -9 -28 -28 -3 -15 -15 -35 -25 -44 -11 -10 -34 -40
-51 -67 -17 -27 -34 -47 -37 -44 -6 7 52 98 78 121 16 14 20 31 20 81 0 35 5
66 10 69 6 4 8 11 5 16 -7 11 -26 12 -24 2z m-97 -272 c-20 -33 -40 -61 -45
-61 -6 0 5 24 24 53 18 28 37 58 41 65 4 7 10 11 12 9 3 -2 -12 -32 -32 -66z"/>
<path d="M1484 2475 c0 -66 1 -92 3 -57 2 34 2 88 0 120 -2 31 -3 3 -3 -63z"/>
<path d="M1434 2567 c3 -10 6 -55 6 -99 0 -104 8 -98 11 10 2 59 -1 85 -10 94
-12 11 -13 10 -7 -5z"/>
<path d="M1770 2563 c0 -11 -4 -23 -9 -28 -10 -12 -35 -164 -28 -171 3 -3 10
25 16 61 10 54 18 72 41 92 27 22 43 52 21 38 -5 -3 -17 2 -25 11 -15 14 -16
14 -16 -3z"/>
<path d="M1150 2536 c0 -13 10 -36 22 -52 12 -15 24 -38 25 -50 5 -31 31 -102
32 -84 1 8 -4 33 -11 55 -6 22 -11 47 -9 55 1 9 -9 26 -23 39 -15 14 -22 29
-19 42 3 10 0 19 -6 19 -6 0 -11 -11 -11 -24z"/>
<path d="M1835 2533 c4 -14 2 -24 -4 -24 -6 -1 -15 -2 -20 -3 -5 0 -13 -5 -18
-10 -5 -5 -3 -6 5 -2 6 4 12 2 12 -3 0 -19 16 -12 30 14 11 21 11 28 1 38 -11
10 -12 8 -6 -10z"/>
<path d="M1424 2455 c0 -49 1 -71 3 -48 2 23 2 64 0 90 -2 26 -3 8 -3 -42z"/>
<path d="M1574 2450 c0 -52 1 -74 3 -47 2 26 2 68 0 95 -2 26 -3 4 -3 -48z"/>
<path d="M481 2504 c-28 -36 -26 -52 7 -66 15 -7 65 -50 110 -96 46 -46 85
-82 87 -80 3 2 -30 40 -73 83 -43 44 -84 89 -92 99 -14 18 -14 18 5 8 27 -15
362 -352 350 -352 -6 0 -29 18 -52 41 -24 22 -48 39 -55 36 -8 -3 -6 -6 5 -6
9 -1 17 -7 17 -14 0 -8 11 -20 25 -27 30 -16 32 -40 4 -47 -14 -4 -19 -12 -16
-23 12 -47 -13 -39 -82 25 -40 37 -76 64 -79 60 -4 -4 2 -13 13 -21 37 -25 84
-77 79 -86 -3 -4 -1 -8 4 -8 10 0 22 -28 29 -70 2 -14 5 -133 7 -265 4 -245
10 -295 48 -369 29 -57 105 -128 173 -162 55 -27 69 -29 166 -29 100 0 110 2
172 33 102 51 178 143 206 250 7 23 16 42 20 42 5 0 35 -61 66 -135 63 -149
102 -197 168 -209 45 -8 105 7 142 36 21 17 67 95 80 138 1 3 5 14 10 25 77
198 136 350 151 390 9 28 21 55 24 60 4 6 15 32 24 59 9 27 23 58 33 68 9 10
13 21 10 25 -8 7 41 43 58 43 6 0 -1 -9 -15 -20 l-25 -20 42 18 c23 9 46 25
53 36 11 17 10 17 -11 2 -26 -18 -43 -21 -34 -6 3 6 1 10 -5 10 -6 0 -8 5 -5
10 3 6 11 10 16 10 6 0 7 -4 4 -10 -10 -16 5 -12 32 10 14 11 33 20 42 21 9 0
27 8 41 17 14 9 40 26 58 37 17 11 32 26 32 33 0 6 5 12 11 12 5 0 7 5 4 10
-7 11 -75 -40 -69 -51 2 -4 -27 -22 -64 -40 -87 -44 -86 -44 -77 -29 4 6 26
20 49 30 46 20 87 49 70 50 -6 0 -23 -9 -37 -20 -14 -11 -29 -20 -33 -20 -16
0 -106 -64 -95 -68 13 -4 5 -22 -10 -22 -6 0 -7 5 -4 10 3 6 3 10 -2 10 -31
-1 -61 -62 -193 -395 -79 -198 -152 -372 -162 -388 -42 -59 -129 -75 -188 -34
-28 18 -46 52 -117 216 -45 107 -83 199 -84 205 0 6 -8 28 -17 49 l-17 38 0
-123 c0 -112 -2 -128 -26 -179 -37 -79 -90 -133 -167 -171 -61 -30 -75 -33
-162 -33 -83 0 -102 3 -150 27 -73 36 -132 94 -166 165 l-29 58 -3 303 -3 303
32 29 c60 57 157 30 179 -48 5 -21 10 -147 10 -287 0 -230 2 -253 20 -282 40
-67 133 -84 191 -36 55 47 59 67 59 338 0 269 2 280 60 328 63 53 182 38 226
-28 23 -35 201 -445 221 -509 11 -35 18 -45 24 -35 5 8 9 20 9 27 0 7 45 127
101 267 105 265 118 287 179 300 40 9 100 -21 114 -57 6 -15 14 -28 18 -28 11
0 26 33 21 48 -3 6 -1 12 5 12 5 0 9 7 9 15 0 12 -5 11 -22 -5 -12 -11 -25
-20 -31 -20 -5 1 16 24 46 53 31 29 44 43 30 32 -14 -11 -40 -33 -57 -49 -35
-32 -45 -26 -15 7 16 19 16 20 -4 9 -29 -15 -60 7 -50 34 5 14 -1 11 -23 -10
-17 -17 -31 -25 -31 -20 0 6 80 90 179 187 98 97 173 177 167 177 -6 0 -92
-81 -191 -180 -99 -99 -184 -180 -190 -180 -6 0 -27 -19 -49 -42 -29 -33 -56
-88 -116 -240 -43 -108 -85 -209 -93 -224 l-15 -28 -19 40 c-11 21 -39 87 -62
145 -23 58 -65 153 -94 210 -49 97 -55 106 -101 128 -81 40 -169 28 -222 -31
-47 -51 -49 -61 -54 -335 l-5 -262 -29 -30 c-24 -25 -38 -31 -70 -31 -45 1
-64 11 -90 51 -14 23 -17 62 -20 287 -3 232 -5 264 -21 289 -21 31 -55 62 -70
63 -5 0 -23 7 -39 15 -15 8 -31 13 -35 10 -4 -2 -86 75 -182 171 -95 95 -179
174 -185 174 -19 0 -34 24 -24 39 9 16 40 7 40 -11 0 -15 207 -225 214 -217 3
2 -24 34 -60 71 -35 36 -64 64 -64 61 0 -2 -23 23 -50 56 -28 34 -57 61 -65
61 -7 0 -23 -12 -34 -26z"/>
<path d="M694 2515 c-8 -20 22 -65 44 -65 13 1 11 6 -10 25 -16 13 -28 29 -28
35 0 15 30 13 30 -2 1 -7 23 -38 51 -68 41 -44 48 -49 35 -23 -9 17 -19 33
-23 35 -5 1 -21 20 -36 41 -29 39 -54 47 -63 22z"/>
<path d="M1296 2501 c-7 -10 10 -137 20 -153 3 -5 10 -6 15 -3 11 7 11 53 -1
80 -6 14 -7 4 -5 -30 4 -37 2 -44 -4 -25 -12 34 -13 84 -2 96 6 5 5 16 -4 27
-8 11 -16 14 -19 8z"/>
<path d="M1696 2496 c3 -9 2 -16 -4 -16 -5 0 -8 -18 -5 -42 3 -24 0 -54 -6
-68 -10 -21 -11 -17 -6 25 3 35 2 44 -4 30 -13 -27 -13 -72 -1 -80 13 -8 26
27 34 97 5 36 3 58 -3 63 -7 3 -8 0 -5 -9z"/>
<path d="M1623 2440 c0 -36 2 -53 4 -37 2 15 10 27 17 27 8 0 16 9 19 21 5 17
2 20 -13 16 -13 -3 -20 1 -23 17 -2 11 -4 -8 -4 -44z"/>
<path d="M1762 2426 c-7 -37 -11 -70 -8 -73 6 -7 28 104 24 125 -2 9 -9 -14
-16 -52z"/>
<path d="M1340 2461 c0 -5 6 -16 14 -24 8 -7 16 -25 19 -38 2 -13 5 -3 6 24 1
41 -2 47 -19 47 -11 0 -20 -4 -20 -9z"/>
<path d="M1783 2408 c-7 -34 -10 -64 -8 -66 5 -6 28 104 24 117 -3 7 -10 -16
-16 -51z"/>
<path d="M750 2427 c0 -8 32 -47 70 -88 39 -40 70 -67 70 -60 0 11 5 9 20 -4
11 -10 20 -23 20 -29 0 -6 -8 -3 -17 6 -15 16 -17 16 -30 0 -8 -9 -12 -12 -9
-6 3 6 -4 20 -15 30 -20 18 -20 18 -5 -12 14 -26 14 -29 1 -34 -12 -4 -6 -15
25 -45 22 -21 40 -34 40 -28 0 7 -4 15 -10 18 -5 3 -10 11 -10 18 0 8 3 8 12
-1 26 -26 30 -10 5 16 -43 45 -31 50 15 7 24 -22 33 -28 20 -14 -33 38 -27 47
11 13 17 -16 26 -22 20 -14 -15 17 -17 34 -3 25 6 -3 10 -2 10 4 0 15 -18 23
-22 10 -2 -6 -25 14 -51 44 -31 36 -43 57 -35 60 8 3 6 6 -4 6 -9 1 -21 9 -27
18 -5 10 -12 15 -15 12 -3 -3 8 -21 24 -40 16 -19 29 -38 30 -43 0 -14 -46 31
-72 70 -13 19 -29 34 -35 34 -7 0 -13 6 -13 14 0 8 -4 18 -10 21 -5 3 -10 0
-10 -8z"/>
<path d="M1818 2363 c-18 -62 -9 -60 15 4 9 23 13 44 9 47 -4 2 -15 -21 -24
-51z"/>
<path d="M1872 2365 c-12 -32 -21 -59 -19 -61 6 -7 49 96 45 108 -2 6 -14 -15
-26 -47z"/>
<path d="M2016 2325 c-51 -80 -52 -81 -33 -66 19 15 22 9 7 -19 -7 -13 -7 -21
2 -26 6 -4 8 -3 5 3 -4 6 2 22 13 34 11 13 19 19 20 12 0 -6 -4 -15 -10 -18
-5 -3 -10 -11 -10 -17 0 -7 6 -6 15 2 9 8 15 9 15 2 0 -6 -4 -14 -10 -17 -5
-3 -10 -11 -10 -16 0 -6 21 16 48 48 72 88 81 104 24 43 -28 -30 -51 -51 -52
-46 0 6 10 20 22 33 12 13 19 25 16 29 -3 3 -16 -5 -28 -18 -20 -20 -22 -20
-16 -4 7 19 6 19 -14 1 -24 -22 -27 -9 -3 17 15 17 27 48 18 48 -1 0 -10 -11
-19 -25z"/>
<path d="M2119 2288 c-73 -86 -84 -107 -24 -43 51 54 82 95 72 95 -2 0 -24
-23 -48 -52z"/>
<path d="M490 2285 c-17 -20 -3 -54 25 -61 13 -3 27 -15 30 -25 10 -30 34 -49
63 -48 l27 1 -26 11 c-14 7 -40 29 -58 50 -18 20 -39 37 -47 37 -8 0 -14 7
-14 15 0 22 19 18 41 -7 22 -28 25 -11 3 20 -18 26 -27 27 -44 7z"/>
<path d="M277 2243 c-13 -15 -13 -20 -1 -30 7 -7 18 -13 24 -13 6 0 32 -11 58
-25 26 -14 56 -25 67 -26 11 0 14 -3 8 -6 -7 -2 -13 -11 -13 -18 0 -7 -5 -15
-11 -17 -19 -6 13 -48 36 -48 11 0 36 -18 54 -39 30 -35 38 -39 69 -34 25 5
37 2 43 -10 5 -9 35 -27 66 -42 51 -23 58 -24 72 -10 14 14 13 18 -14 40 -17
13 -25 24 -18 25 6 0 15 -4 18 -10 3 -5 12 -10 18 -10 14 1 -31 41 -86 76 -56
36 -57 22 -2 -16 26 -18 44 -34 41 -37 -2 -3 -24 8 -48 25 -24 16 -53 32 -65
36 -11 4 -27 13 -33 21 -7 8 -20 15 -29 15 -13 -1 -13 -3 4 -16 11 -9 34 -22
50 -30 23 -10 25 -13 10 -13 -11 0 -31 8 -45 19 -26 20 -56 27 -45 11 7 -13
64 -41 82 -41 8 0 29 -11 46 -24 46 -33 87 -59 87 -53 0 2 -18 17 -41 31 -22
15 -39 30 -36 33 3 2 29 -11 59 -31 29 -20 47 -36 40 -36 -7 0 -10 -4 -7 -10
13 -21 -16 -8 -81 35 -38 26 -78 45 -94 45 -17 0 -41 13 -64 35 -21 19 -46 35
-57 35 -10 0 -19 6 -19 14 0 21 17 29 27 13 10 -18 51 -39 56 -30 6 11 -39 74
-47 66 -3 -4 -6 -2 -6 4 0 10 -45 27 -54 21 -2 -2 -13 5 -23 14 -11 10 -34 21
-51 24 -38 8 -49 21 -33 37 9 9 14 8 21 -4 8 -15 62 -37 66 -27 1 2 11 -5 21
-14 11 -10 33 -19 49 -22 16 -2 22 -1 14 1 -8 3 -26 14 -39 24 -13 11 -29 19
-35 19 -6 0 -28 9 -49 20 -45 24 -40 24 -60 3z"/>
<path d="M786 2252 c-5 -9 101 -118 108 -112 2 3 -20 31 -50 62 -30 31 -56 53
-58 50z"/>
<path d="M2091 2215 c-43 -49 -39 -58 6 -13 20 21 34 40 31 43 -3 3 -19 -10
-37 -30z"/>
<path d="M562 2228 c2 -6 13 -16 23 -22 11 -6 25 -17 33 -23 16 -15 22 -16 42
-3 12 8 11 10 -6 10 -11 0 -35 11 -54 25 -38 28 -43 30 -38 13z"/>
<path d="M2112 2194 c-20 -19 -28 -31 -17 -26 22 11 73 62 62 62 -4 0 -24 -16
-45 -36z"/>
<path d="M2142 2185 c-26 -24 -42 -45 -37 -45 6 0 31 20 55 45 57 58 43 59
-18 0z"/>
<path d="M2431 2191 c-6 -10 -22 -22 -37 -25 -14 -4 -24 -10 -21 -13 10 -10
62 16 75 37 7 11 8 20 2 20 -5 0 -14 -8 -19 -19z"/>
<path d="M725 2130 c27 -27 53 -50 58 -50 4 0 -15 23 -43 50 -28 28 -54 50
-58 50 -3 0 16 -22 43 -50z"/>
<path d="M661 2163 c1 -5 27 -30 58 -58 l56 -49 -55 57 c-55 58 -61 63 -59 50z"/>
<path d="M1382 2050 c-57 -35 -62 -61 -62 -336 0 -276 -4 -296 -69 -340 -26
-18 -49 -24 -87 -24 -65 0 -111 29 -141 90 -22 42 -23 55 -23 303 l0 259 -29
29 c-32 31 -55 36 -95 18 -44 -20 -47 -47 -44 -345 l3 -279 28 -57 c32 -65
100 -130 167 -161 34 -15 66 -21 130 -21 101 0 154 20 225 85 84 78 115 173
115 359 0 150 -17 120 -22 -39 -5 -144 -6 -153 -37 -215 -34 -70 -78 -112
-151 -148 -64 -31 -186 -32 -252 -1 -66 30 -132 95 -159 156 -23 50 -24 62
-27 334 -3 273 -3 282 17 302 25 25 58 26 86 5 19 -14 20 -30 25 -292 6 -308
7 -316 75 -368 38 -28 111 -42 159 -30 36 9 96 65 112 103 11 24 14 96 14 289
l0 256 34 34 c62 62 156 42 195 -41 16 -33 241 -558 259 -604 3 -8 0 -12 -7
-10 -6 2 -70 141 -141 309 -141 331 -159 360 -225 360 -21 0 -44 -9 -62 -24
l-28 -24 -5 -270 -5 -270 -30 -44 c-71 -102 -208 -116 -298 -30 -60 57 -61 63
-67 360 -5 287 -6 291 -51 292 -38 0 -40 -20 -37 -312 l3 -283 30 -53 c49 -90
128 -141 230 -150 128 -10 236 52 292 166 27 56 28 62 30 251 2 107 4 196 6
197 1 2 63 -139 136 -311 74 -173 144 -324 156 -335 46 -43 130 -33 163 21 28
44 302 751 302 778 0 36 -40 71 -81 71 -55 0 -73 -31 -189 -324 -61 -154 -109
-286 -107 -295 3 -11 8 -6 16 14 6 17 59 150 117 297 58 147 112 272 120 279
21 17 72 15 91 -3 8 -9 16 -27 15 -41 0 -14 -66 -191 -146 -393 -154 -388
-169 -414 -226 -414 -55 0 -83 41 -171 250 -44 107 -105 250 -134 318 -34 79
-48 122 -40 122 7 0 20 -19 28 -42 23 -64 203 -484 234 -548 52 -103 114 -104
159 -3 61 138 274 688 274 709 0 25 -28 39 -58 30 -23 -8 -36 -37 -162 -356
-56 -140 -105 -259 -109 -263 -7 -7 -82 156 -212 463 -29 69 -61 137 -72 153
-39 57 -124 74 -185 37z m115 -86 c4 -26 -23 -58 -42 -51 -8 4 -21 18 -27 33
-10 22 -10 28 6 39 23 17 60 5 63 -21z m158 -284 c59 -140 118 -275 131 -299
17 -30 21 -48 14 -55 -5 -5 -11 -8 -13 -5 -2 2 -52 121 -112 264 -59 143 -119
281 -131 306 -21 41 -22 72 -3 52 4 -5 55 -123 114 -263z m455 263 c0 -18
-236 -603 -243 -603 -15 0 -4 29 113 322 99 249 130 315 130 281z m-712 -250
c-3 -233 -4 -251 -25 -289 -46 -86 -154 -144 -240 -128 -86 15 -162 77 -192
155 -8 23 -17 458 -10 484 2 6 5 -96 8 -225 6 -218 8 -238 28 -277 40 -75 120
-123 205 -123 59 0 139 48 173 104 l30 49 3 249 c2 159 7 248 13 248 7 0 9
-85 7 -247z m742 221 c0 -3 -51 -135 -113 -292 -63 -158 -117 -295 -120 -304
-6 -18 -27 -25 -27 -10 0 4 20 55 44 112 24 58 78 194 121 303 43 108 82 197
86 197 5 0 9 -3 9 -6z m-1235 -226 c0 -190 3 -230 18 -270 22 -56 97 -130 153
-148 96 -33 215 -2 280 73 56 66 64 112 64 351 0 153 3 207 11 199 8 -8 10
-79 7 -229 -5 -244 -9 -262 -75 -335 -104 -115 -284 -119 -393 -10 -73 73 -80
105 -80 368 0 123 3 223 8 223 4 0 7 -100 7 -222z m625 202 c0 -10 188 -460
225 -538 29 -62 29 -62 10 -62 -8 0 -15 5 -15 11 0 14 -229 560 -242 576 -11
14 -1 36 13 28 5 -4 9 -10 9 -15z m330 -610 c0 -23 -24 -42 -44 -34 -20 8 -20
23 0 52 13 18 19 21 30 11 8 -6 14 -19 14 -29z"/>
<path d="M2269 2001 c-36 -29 -17 -34 21 -6 21 15 28 25 18 25 -9 0 -26 -9
-39 -19z"/>
<path d="M277 1996 c-16 -12 -15 -44 2 -47 3 -1 18 -2 33 -3 15 -2 45 -15 67
-31 23 -15 47 -25 56 -21 8 3 15 1 15 -4 0 -5 9 -12 20 -15 11 -3 20 -10 20
-15 0 -11 -71 -3 -84 10 -15 15 -43 12 -50 -5 -9 -25 5 -45 33 -45 33 0 67
-23 57 -38 -9 -15 -41 -15 -67 -2 -17 10 -100 20 -157 20 -13 0 -32 4 -41 10
-14 7 -23 5 -36 -10 -16 -17 -16 -21 -2 -35 11 -10 25 -13 40 -9 14 3 28 1 31
-5 4 -6 29 -11 56 -11 45 0 50 -3 69 -36 26 -44 21 -54 -22 -44 -23 5 -40 3
-52 -7 -18 -12 -18 -14 -3 -29 9 -9 27 -17 40 -18 14 -1 27 -10 33 -23 5 -13
13 -23 17 -23 5 0 8 -7 8 -15 0 -16 0 -16 -130 -17 -46 0 -94 -4 -105 -9 -11
-4 102 -8 255 -8 151 0 267 4 257 8 -10 4 -17 11 -15 16 2 6 -33 11 -82 13
-46 2 -90 8 -97 14 -7 6 -28 7 -48 4 -25 -5 -35 -3 -35 6 0 10 32 13 137 13
134 0 138 1 141 22 3 19 -3 22 -55 28 -170 18 -222 37 -223 83 0 23 24 7 30
-19 5 -19 13 -24 36 -24 16 0 34 -4 41 -8 7 -4 40 -9 75 -11 35 -2 48 -2 31 1
-25 3 -33 9 -33 25 0 19 4 20 53 15 42 -5 46 -4 22 4 -47 15 -196 42 -241 44
-23 1 -47 6 -53 9 -6 4 -27 6 -46 5 -19 -2 -37 0 -41 4 -4 4 -25 7 -46 7 -28
0 -38 4 -38 16 0 13 6 15 28 8 15 -4 38 -8 52 -9 14 -1 32 -5 40 -8 8 -4 31
-6 50 -6 52 0 145 -16 230 -39 41 -12 84 -21 95 -21 11 0 -10 8 -46 18 -49 13
-76 28 -102 54 -32 31 -73 49 -117 51 -18 1 -20 28 -2 34 6 2 12 -1 12 -6 0
-5 21 -15 48 -22 26 -7 56 -23 67 -35 11 -12 47 -29 82 -39 77 -20 106 -20 41
0 -27 8 -48 20 -48 28 0 7 -7 13 -15 13 -8 0 -12 -4 -9 -9 12 -18 -14 -6 -36
18 -20 21 -22 27 -10 34 10 6 24 2 45 -14 16 -13 47 -26 67 -30 21 -4 40 -12
44 -17 4 -8 -2 -9 -17 -4 -51 14 -65 16 -49 7 8 -5 27 -12 42 -16 21 -5 30 -2
38 15 7 11 10 22 8 24 -10 11 -108 43 -108 36 0 -5 20 -14 45 -21 25 -7 48
-17 52 -23 4 -6 0 -8 -9 -4 -9 3 -34 11 -57 18 -23 7 -41 18 -41 26 0 15 -47
36 -61 27 -5 -3 -21 4 -35 15 -15 12 -35 21 -45 21 -11 0 -19 4 -19 9 0 10
-89 45 -112 43 -10 0 -18 5 -18 12 0 23 12 25 43 5 37 -22 47 -24 47 -7 0 6
-3 8 -6 5 -4 -3 -18 3 -32 13 -29 23 -31 24 -55 6z m227 -282 c25 -10 20 -45
-5 -41 -22 4 -41 26 -33 39 6 10 17 10 38 2z m-55 -80 c74 -4 146 -10 160 -15
26 -7 -188 -2 -242 6 -17 3 -26 1 -22 -5 3 -6 45 -10 93 -11 48 -1 112 -5 142
-9 37 -6 6 -7 -90 -4 -103 4 -149 10 -160 19 -9 8 -25 12 -38 8 -16 -4 -22 -1
-22 12 0 13 6 16 23 12 12 -3 83 -9 156 -13z"/>
<path d="M501 1954 c-21 -24 -23 -25 -47 -9 -14 9 -37 15 -52 13 l-27 -4 30
-9 c16 -4 36 -14 43 -22 7 -7 23 -13 36 -13 12 0 26 -4 32 -9 5 -4 23 -13 39
-19 17 -5 54 -19 83 -31 29 -12 51 -18 49 -14 -3 5 -28 17 -57 28 -29 11 -56
28 -61 38 -5 9 -18 17 -29 17 -22 0 -34 15 -24 32 5 8 11 6 20 -6 7 -10 21
-16 31 -14 15 3 13 7 -13 25 l-31 22 -22 -25z"/>
<path d="M2490 1936 c0 -10 -9 -16 -24 -16 -13 0 -27 -7 -30 -16 -3 -8 -29
-26 -58 -39 -75 -34 -54 -31 44 7 45 18 86 31 91 30 13 -4 7 25 -8 38 -12 10
-15 10 -15 -4z"/>
<path d="M596 1932 c-6 -10 84 -56 92 -47 3 3 -9 11 -26 17 -18 7 -32 18 -32
25 0 14 -26 18 -34 5z"/>
<path d="M2396 1928 c5 -8 2 -9 -9 -5 -10 3 -17 3 -17 -2 0 -4 -18 -16 -40
-26 -22 -10 -39 -20 -37 -22 8 -8 118 48 112 57 -3 6 -8 10 -11 10 -3 0 -2 -5
2 -12z"/>
<path d="M2595 1920 c-3 -5 -14 -10 -24 -10 -10 0 -30 -9 -45 -21 -14 -11 -30
-18 -35 -14 -5 3 -12 1 -16 -5 -12 -19 42 -10 60 10 10 12 24 19 31 16 7 -3
23 4 36 14 13 11 18 19 11 20 -6 0 -15 -4 -18 -10z"/>
<path d="M580 1905 c0 -6 87 -45 98 -45 9 1 -80 49 -90 50 -5 0 -8 -2 -8 -5z"/>
<path d="M2355 1880 c-33 -15 -57 -29 -53 -29 11 -1 118 47 118 53 0 8 3 9
-65 -24z"/>
<path d="M2438 1852 c-3 -11 -22 -23 -46 -30 -23 -7 -44 -17 -47 -21 -6 -11
65 9 83 22 18 14 35 47 24 47 -6 0 -12 -8 -14 -18z"/>
<path d="M2540 1810 c0 -5 -6 -10 -13 -10 -7 0 -23 -13 -34 -28 -17 -22 -35
-32 -82 -42 -34 -7 -59 -15 -57 -17 8 -9 158 31 163 43 2 6 16 9 31 6 26 -4
27 -4 7 12 -14 12 -16 19 -7 22 14 7 16 24 2 24 -5 0 -10 -4 -10 -10z"/>
<path d="M2420 1790 c0 -5 -19 -15 -42 -24 -41 -15 -41 -15 -8 -10 19 4 48 12
65 18 28 12 29 13 7 18 -12 3 -22 2 -22 -2z"/>
<path d="M2395 1749 c-46 -15 -51 -18 -20 -13 22 3 53 12 70 19 42 19 21 16
-50 -6z"/>
<path d="M2607 1744 c-14 -15 -6 -22 23 -20 17 1 30 6 30 11 1 12 -43 19 -53
9z"/>
<path d="M2410 1705 l-45 -12 57 1 c36 1 59 6 62 14 6 15 -14 14 -74 -3z"/>
<path d="M2566 1653 c-2 -3 -38 -8 -78 -13 l-73 -7 75 -1 c41 0 86 3 100 7 24
7 25 7 3 13 -12 3 -24 4 -27 1z"/>
<path d="M2415 1610 c-27 -4 13 -5 90 -2 77 2 142 6 144 8 7 7 -181 1 -234 -6z"/>
<path d="M2470 1590 l-105 -7 137 1 c114 1 138 -2 142 -14 2 -8 4 -5 5 8 1 25
16 24 -179 12z"/>
<path d="M503 1563 c26 -2 67 -2 90 0 23 2 2 3 -48 3 -49 0 -68 -1 -42 -3z"/>
<path d="M2423 1563 c26 -2 67 -2 90 0 23 2 2 3 -48 3 -49 0 -68 -1 -42 -3z"/>
<path d="M2560 1560 c0 -6 -37 -10 -90 -10 -77 0 -89 -2 -78 -14 7 -8 16 -12
21 -9 4 2 7 -1 7 -7 0 -7 23 -10 69 -8 38 2 68 5 66 7 -8 7 16 41 28 41 17 0
47 -36 39 -46 -4 -4 -1 -4 6 0 17 10 15 26 -5 42 -21 16 -63 18 -63 4z"/>
<path d="M287 1480 c94 -3 174 -8 178 -11 11 -11 -66 -21 -79 -10 -14 12 -46
-19 -46 -44 0 -8 -7 -15 -15 -15 -8 0 -15 -4 -15 -10 0 -5 -7 -7 -15 -4 -8 3
-22 -1 -31 -10 -27 -27 -2 -47 52 -39 50 6 52 2 24 -44 -17 -29 -25 -33 -64
-33 -25 0 -48 -4 -51 -10 -3 -5 -21 -10 -39 -10 -39 0 -66 -24 -48 -42 9 -9
12 -7 12 9 0 15 7 20 28 21 47 1 246 24 262 30 8 3 18 5 22 4 15 -3 173 30
182 38 5 5 -9 4 -30 -1 -59 -13 -74 -11 -74 10 0 15 10 19 47 24 31 3 51 1 55
-6 5 -8 8 -6 8 6 0 17 -7 17 -87 11 -49 -4 -90 -11 -91 -16 -2 -5 -19 -6 -37
-2 -34 6 -47 -3 -49 -37 -1 -11 -5 -20 -11 -22 -17 -4 -15 27 3 51 16 20 32
24 140 34 88 9 122 15 122 25 0 17 -275 19 -286 2 -4 -8 34 -9 137 -6 95 4
125 3 89 -3 -30 -4 -103 -8 -162 -9 -59 -1 -110 -5 -113 -11 -10 -15 -35 -12
-35 5 0 10 10 15 29 15 16 0 34 7 41 15 10 12 41 15 139 17 l126 2 -122 3
c-101 3 -123 6 -123 18 0 12 8 14 39 9 24 -4 41 -2 45 5 4 6 38 11 81 11 42 0
77 5 80 11 4 6 17 14 29 19 12 5 -88 8 -249 7 -250 -1 -257 -1 -98 -7z m227
-156 c9 -3 16 -11 16 -18 0 -13 -48 -37 -55 -27 -2 4 -18 6 -35 3 -16 -2 -30
0 -30 6 0 15 28 23 33 9 3 -8 13 -4 28 11 13 12 24 22 25 22 1 0 9 -3 18 -6z"/>
<path d="M538 1433 c17 -2 47 -2 65 0 17 2 3 4 -33 4 -36 0 -50 -2 -32 -4z"/>
<path d="M2640 1420 c0 -6 -49 -11 -122 -12 l-123 -2 140 -5 c77 -4 142 -5
144 -3 2 1 -1 2 -7 2 -7 0 -12 7 -12 15 0 8 -4 15 -10 15 -5 0 -10 -4 -10 -10z"/>
<path d="M2367 1384 c-17 -17 -3 -24 46 -22 l52 1 -50 8 c-29 4 11 5 95 3 93
-3 140 -2 131 5 -16 11 -263 15 -274 5z"/>
<path d="M2540 1348 c40 -5 70 -15 78 -25 10 -14 12 -14 13 -2 1 8 1 18 0 23
-2 8 29 5 74 -8 11 -4 7 0 -10 8 -20 10 -60 15 -125 14 l-95 0 65 -10z"/>
<path d="M2389 1339 c13 -5 47 -11 75 -13 28 -2 52 -5 54 -6 1 -2 5 -3 10 -4
4 -1 12 -4 17 -7 6 -3 24 -2 40 1 24 6 27 8 13 14 -10 5 -25 5 -34 2 -9 -4
-22 -2 -28 3 -6 4 -47 11 -91 14 -57 5 -73 4 -56 -4z"/>
<path d="M2390 1291 c60 -18 90 -20 90 -8 0 8 -20 12 -58 13 -38 1 -49 -1 -32
-5z"/>
<path d="M2596 1285 c-4 -11 -14 -14 -33 -11 -16 3 -34 2 -42 -3 -15 -10 31
-18 159 -27 46 -3 95 -10 109 -15 13 -5 33 -6 45 -2 17 6 14 8 -19 14 -22 4
-56 8 -75 8 -19 1 -48 8 -64 16 -21 11 -32 12 -41 5 -15 -13 -30 3 -20 20 3 6
2 10 -3 10 -6 0 -12 -7 -16 -15z"/>
<path d="M560 1265 c-52 -13 -95 -24 -95 -24 0 -1 -25 -4 -55 -7 -182 -17
-224 -24 -240 -40 -13 -15 -13 -15 9 -9 24 7 62 13 141 19 25 2 57 7 72 11 15
4 35 4 44 1 25 -9 -2 -36 -36 -36 -35 0 -58 -25 -43 -48 6 -10 20 -17 32 -16
11 0 21 -2 21 -6 0 -14 -59 -49 -93 -55 -23 -5 -39 -14 -42 -26 -14 -42 19
-51 69 -20 17 11 42 21 56 23 14 2 36 11 50 21 23 16 25 16 45 -3 26 -25 34
-25 65 0 33 26 60 26 60 0 0 -24 -35 -44 -65 -36 -18 5 -30 -2 -52 -27 -16
-17 -45 -40 -66 -49 -41 -19 -45 -32 -21 -59 16 -17 15 -19 -10 -29 -15 -5
-31 -10 -35 -10 -5 0 -14 -6 -20 -14 -6 -7 -24 -16 -39 -19 -29 -6 -58 -42
-42 -52 6 -3 10 0 10 7 0 8 17 20 38 27 20 8 44 19 52 25 8 7 34 18 57 26 24
7 45 21 48 31 8 23 24 35 58 43 19 4 26 3 22 -4 -3 -5 -15 -10 -25 -10 -11 0
-26 -12 -34 -29 -8 -15 -30 -34 -48 -41 -18 -7 -41 -20 -50 -28 -10 -8 -18
-12 -18 -8 0 3 -14 -1 -32 -10 -33 -17 -65 -44 -52 -44 14 0 132 59 139 70 3
5 14 10 24 10 10 0 28 13 40 29 13 16 53 46 89 66 91 49 102 55 145 93 57 49
28 38 -55 -21 -86 -62 -108 -72 -119 -55 -6 9 -11 9 -23 -2 -9 -7 -19 -10 -22
-8 -3 3 12 16 33 28 79 45 94 50 73 25 -7 -8 -21 -15 -31 -15 -10 0 -21 -5
-25 -11 -13 -22 38 3 118 57 74 51 93 68 46 43 -11 -6 -22 -8 -25 -6 -3 3 8
12 24 21 15 8 23 15 17 16 -6 0 -43 -22 -83 -50 -40 -27 -76 -50 -81 -50 -18
0 -130 -69 -130 -81 0 -12 -27 -12 -34 0 -3 5 19 21 49 36 29 15 56 34 59 41
3 8 17 14 30 14 14 0 56 21 93 47 76 52 100 71 65 53 -34 -17 -39 -4 -5 14 42
23 19 19 -27 -4 -43 -22 -53 -36 -19 -25 15 5 19 4 15 -4 -11 -16 -46 -13 -46
4 0 8 20 25 44 36 33 17 42 26 38 41 -2 10 -8 21 -12 23 -11 7 -123 -35 -116
-42 3 -3 28 4 57 16 28 12 53 20 56 17 5 -4 -28 -20 -96 -47 -13 -5 -22 -12
-19 -14 3 -3 30 6 61 20 32 13 57 21 57 17 -1 -4 -35 -23 -78 -42 -42 -19 -81
-40 -85 -47 -10 -16 -27 -8 -27 11 0 8 14 16 30 20 17 3 30 12 30 20 0 15 -34
11 -56 -6 -7 -5 -16 -8 -20 -7 -16 2 -54 -13 -54 -22 0 -5 -6 -9 -12 -9 -20 0
-118 -43 -118 -52 0 -4 -7 -8 -15 -8 -8 0 -15 7 -15 15 0 8 6 15 14 15 19 0
104 38 111 50 3 6 14 10 24 10 10 0 30 9 44 20 14 11 31 18 39 15 7 -3 45 11
83 30 42 22 58 34 40 30 -16 -4 -34 -7 -39 -8 -5 -1 -11 5 -13 14 -3 11 9 19
38 28 22 7 43 10 46 7 3 -2 -14 -10 -37 -16 -23 -6 -40 -14 -37 -17 4 -3 20 0
38 6 40 14 52 14 44 1 -3 -5 -1 -10 5 -10 8 0 9 7 5 18 -4 9 -8 25 -11 36 -5
24 -14 34 -14 14 0 -16 -112 -54 -129 -43 -5 3 -18 -8 -27 -25 -13 -21 -26
-30 -44 -30 -14 -1 -36 -7 -50 -15 -33 -19 -50 -19 -50 0 0 9 9 15 25 15 39 0
102 31 118 60 13 21 29 29 82 39 36 7 68 17 71 22 3 5 4 8 2 8 -2 -1 -46 -12
-98 -24z m-5 -111 c-34 -25 -59 0 -29 31 16 15 18 15 33 0 15 -15 14 -17 -4
-31z m-98 -29 c-7 -16 -37 -21 -37 -5 0 10 32 31 39 25 2 -2 1 -11 -2 -20z"/>
<path d="M2415 1261 c42 -11 71 -27 98 -54 43 -42 67 -49 43 -13 -15 24 -14
25 12 35 23 9 23 11 3 7 -13 -3 -31 -1 -40 4 -19 10 -145 40 -163 39 -7 0 14
-8 47 -18z"/>
<path d="M580 1245 c-25 -7 -36 -13 -25 -13 11 0 38 5 60 13 52 17 24 17 -35
0z"/>
<path d="M2385 1245 c22 -8 49 -13 60 -13 11 0 2 6 -20 13 -22 8 -49 13 -60
13 -11 0 -2 -6 20 -13z"/>
<path d="M2378 1223 c23 -8 42 -19 42 -24 0 -6 5 -7 10 -4 20 12 9 23 -34 34
-61 15 -70 13 -18 -6z"/>
<path d="M2630 1218 c0 -4 19 -8 42 -8 23 0 38 3 34 7 -10 10 -76 11 -76 1z"/>
<path d="M2471 1215 c3 -5 11 -22 19 -38 12 -25 11 -29 -6 -43 -18 -15 -18
-15 -1 -10 11 4 29 -2 44 -14 14 -11 33 -20 41 -20 9 0 23 -7 33 -16 9 -8 20
-11 23 -6 3 5 -17 19 -44 31 -50 23 -61 35 -37 44 15 5 59 -11 68 -25 4 -7 9
-7 13 0 7 12 -54 42 -87 42 -16 0 -28 7 -32 19 -3 11 -13 25 -22 33 -9 7 -14
9 -12 3z"/>
<path d="M2733 1209 c10 -6 23 -8 30 -6 7 2 27 -2 46 -10 26 -10 37 -11 45 -2
8 9 8 10 -2 5 -7 -4 -19 -3 -26 3 -6 6 -34 12 -61 15 -36 3 -45 2 -32 -5z"/>
<path d="M2320 1197 c8 -9 110 -47 110 -41 0 5 -49 27 -90 39 -14 4 -23 5 -20
2z"/>
<path d="M2325 1172 c16 -16 105 -52 105 -43 0 5 -8 11 -17 14 -10 3 -36 12
-58 22 -22 9 -35 12 -30 7z"/>
<path d="M2301 1155 c9 -9 119 -55 119 -49 0 3 -25 16 -55 30 -53 23 -74 29
-64 19z"/>
<path d="M2325 1115 c22 -14 44 -25 48 -25 5 0 6 -4 3 -8 -2 -4 7 -9 22 -10
14 -1 30 -9 35 -17 4 -9 12 -13 17 -10 5 3 11 1 15 -5 3 -5 10 -10 16 -10 22
0 -35 40 -105 74 -89 42 -108 46 -51 11z"/>
<path d="M2430 1105 c0 -9 12 -18 30 -21 18 -4 30 -13 30 -22 0 -12 3 -13 12
-4 16 16 36 15 54 -3 9 -8 27 -15 41 -15 31 0 26 9 -7 15 -13 3 -26 8 -29 13
-6 9 -38 24 -56 27 -5 0 -23 6 -38 13 -36 15 -37 15 -37 -3z"/>
<path d="M2290 1080 c27 -21 21 -26 -13 -9 -19 9 -19 8 3 -11 19 -17 21 -20 6
-16 -16 6 -17 4 -6 -9 14 -17 35 -21 25 -5 -3 6 -2 10 4 10 14 0 23 -18 11
-22 -11 -3 73 -68 88 -68 4 0 18 -9 32 -20 14 -11 34 -20 46 -20 12 0 25 -10
32 -25 11 -25 26 -32 35 -17 2 4 2 2 1 -5 -2 -7 1 -15 5 -18 5 -2 11 6 13 20
3 14 2 25 -3 25 -4 0 -19 10 -32 23 -26 23 -102 67 -118 67 -13 0 -110 73
-104 78 2 3 16 -3 29 -12 29 -18 39 -20 34 -6 -2 6 -28 22 -58 35 -46 21 -51
22 -30 5z m86 -85 c18 -14 37 -25 43 -25 6 0 27 -11 47 -25 20 -14 30 -25 21
-25 -9 0 -18 4 -21 8 -3 4 -30 21 -60 36 -30 15 -60 34 -67 42 -18 22 1 16 37
-11z"/>
<path d="M2252 1029 c5 -14 76 -68 91 -69 15 0 0 15 -49 49 -26 19 -45 28 -42
20z"/>
<path d="M1220 1010 c-8 -5 -27 -8 -41 -5 -17 4 -34 -1 -51 -14 -25 -20 -26
-20 -50 -2 -31 25 -115 26 -141 3 -15 -13 -21 -14 -35 -4 -31 23 -41 24 -72
11 -31 -15 -38 -25 -19 -31 7 -2 -24 -36 -67 -76 -43 -40 -71 -72 -62 -72 8 0
27 14 42 32 14 17 26 28 26 23 0 -5 11 2 25 15 23 22 25 22 25 4 0 -22 -23
-59 -60 -92 -14 -13 -73 -71 -132 -128 -59 -57 -114 -104 -122 -104 -38 0 -25
-74 17 -89 18 -7 42 14 167 141 131 132 180 170 180 137 0 -6 -5 -20 -11 -32
-8 -15 3 -9 32 18 24 22 38 33 32 26 -24 -28 -13 -35 14 -10 15 13 21 16 14 6
-25 -31 -4 -29 23 3 14 17 26 27 26 21 0 -5 -4 -13 -10 -16 -5 -3 -10 -12 -10
-18 1 -7 9 -2 19 11 27 31 36 28 13 -5 -33 -49 -37 -59 -14 -39 25 22 29 11 7
-18 -12 -16 -17 -17 -30 -6 -12 10 -13 16 -4 27 7 7 10 16 7 18 -3 3 -19 -13
-37 -36 -33 -40 -38 -64 -7 -34 9 10 23 14 32 11 13 -5 13 -9 0 -33 -8 -16
-33 -46 -55 -68 -23 -21 -41 -46 -41 -55 0 -21 20 -40 41 -40 15 0 16 -5 9
-32 -5 -17 -18 -41 -29 -52 -11 -12 -23 -36 -26 -55 -3 -18 -13 -47 -21 -63
-14 -27 -14 -31 3 -44 24 -18 36 -13 47 22 5 16 18 48 30 72 16 33 25 42 40
38 25 -6 46 16 53 58 5 34 22 40 52 22 14 -9 2 -98 -15 -117 -20 -22 -14 -53
10 -57 25 -5 36 9 41 48 4 32 35 78 35 53 0 -15 32 -25 54 -17 9 3 16 17 16
30 0 15 6 24 15 24 13 0 14 -9 10 -52 -15 -133 -24 -190 -29 -195 -10 -10 15
-33 35 -33 20 0 31 25 24 58 -4 21 -1 22 33 20 36 -3 37 -3 35 32 -7 131 -7
132 17 150 22 17 23 19 6 35 -19 20 -35 13 -18 -8 13 -15 6 -27 -13 -27 -9 0
-11 14 -7 45 3 32 1 45 -8 45 -9 0 -11 19 -7 78 l6 77 -14 -84 c-10 -61 -11
-99 -4 -140 6 -31 14 -78 19 -106 4 -27 12 -61 16 -74 6 -19 4 -22 -11 -20
-13 3 -19 15 -21 44 -2 22 -6 70 -10 108 -8 96 -26 74 -23 -29 2 -46 0 -86 -4
-90 -4 -4 -7 -29 -7 -56 0 -37 -4 -48 -16 -48 -13 0 -14 6 -8 32 5 18 8 47 9
65 0 17 4 35 8 39 4 4 7 45 7 91 0 45 4 83 9 83 9 0 36 178 28 186 -2 2 -10
-29 -16 -71 -7 -41 -16 -75 -21 -75 -4 0 -1 30 7 67 7 37 12 74 10 83 -3 12
-19 -64 -31 -144 -1 -8 -9 -23 -19 -33 -9 -10 -19 -38 -23 -61 -4 -26 -12 -42
-20 -42 -17 0 -18 22 -3 37 6 6 12 25 14 42 1 18 11 42 22 54 12 13 25 51 32
91 14 79 9 98 -8 31 -11 -44 -23 -56 -36 -34 -9 13 14 99 26 99 4 0 2 -19 -7
-42 -8 -22 -12 -43 -9 -46 6 -6 25 44 25 65 0 15 9 15 60 2 8 -2 19 -8 23 -14
5 -6 7 -4 5 5 -5 15 -99 44 -109 32 -10 -12 -59 -156 -59 -174 0 -9 -4 -18
-10 -20 -5 -1 -11 -22 -13 -45 -3 -24 -9 -49 -16 -56 -6 -8 -14 -35 -17 -61
-4 -25 -12 -46 -19 -46 -21 0 -24 12 -10 34 7 11 17 39 21 61 3 22 10 45 14
50 5 6 11 28 15 50 4 22 11 45 16 51 13 16 60 146 55 151 -2 2 -14 -22 -26
-54 -11 -32 -34 -77 -50 -100 -17 -23 -30 -46 -30 -52 0 -6 -7 -11 -15 -11 -8
0 -15 7 -15 16 0 26 -35 11 -38 -16 -8 -54 -22 -43 -22 16 0 49 4 65 21 80 11
10 36 46 55 79 48 85 49 86 66 80 13 -5 13 -11 -3 -43 -11 -20 -19 -42 -19
-50 0 -9 -7 -11 -19 -7 -15 4 -24 -1 -35 -23 -8 -16 -22 -34 -30 -41 -18 -15
-22 -51 -6 -51 6 0 10 6 10 13 0 19 50 77 66 77 22 0 17 -16 -17 -55 -18 -20
-28 -39 -25 -43 12 -11 63 58 84 113 32 80 35 93 12 52 -27 -48 -37 -42 -13 7
15 32 21 36 43 32 14 -3 5 4 -20 16 -25 12 -51 28 -58 35 -16 15 -32 17 -32 4
0 -5 9 -13 20 -16 11 -4 17 -11 14 -17 -4 -6 -10 -5 -15 3 -5 8 -9 10 -9 4 0
-5 -4 -4 -9 3 -6 10 -19 -3 -46 -48 -20 -33 -35 -64 -32 -67 3 -2 13 9 22 26
8 17 18 31 20 31 13 0 1 -23 -40 -79 -41 -55 -45 -66 -45 -119 0 -40 -6 -64
-19 -81 -10 -14 -17 -31 -14 -38 3 -7 1 -13 -5 -13 -5 0 -15 -21 -22 -47 -16
-58 -27 -73 -36 -49 -4 10 -2 21 3 25 12 7 33 67 26 74 -2 3 9 24 26 48 26 35
31 51 31 99 0 47 4 60 25 80 14 13 25 28 25 34 -1 15 -79 -76 -80 -91 0 -14
-30 -18 -30 -5 0 5 19 29 43 55 48 50 153 214 118 183 -24 -21 -29 -6 -6 17
11 12 12 17 2 20 -9 3 -9 7 0 17 9 10 18 6 43 -18 33 -34 49 -33 87 1 l22 20
31 -26 c27 -23 36 -25 88 -20 31 3 73 5 94 5 21 -1 41 5 48 13 16 19 34 19 50
0 15 -18 49 -19 73 -1 15 11 23 10 56 -6 33 -16 48 -17 97 -10 33 5 92 8 132
6 56 -2 74 1 79 12 9 25 29 15 52 -27 13 -23 43 -70 67 -106 24 -36 44 -68 44
-71 0 -13 -34 26 -57 65 -14 24 -28 42 -31 39 -6 -6 53 -99 74 -116 11 -10 14
-10 14 0 0 15 59 -31 59 -47 1 -7 -6 -13 -14 -13 -8 0 -15 6 -15 14 0 7 -7 19
-15 26 -13 11 -15 5 -15 -47 0 -51 5 -66 30 -101 17 -23 29 -45 29 -49 -4 -21
15 -72 28 -77 17 -7 8 -26 -11 -26 -8 0 -16 16 -20 37 -3 21 -19 65 -36 97
-22 43 -30 73 -30 110 0 42 -5 58 -28 86 -16 19 -44 61 -62 92 -19 31 -36 55
-38 53 -3 -2 8 -25 23 -50 15 -26 25 -49 22 -51 -4 -4 -67 99 -67 110 0 2 7 6
15 10 10 3 20 -5 31 -25 8 -17 18 -29 20 -26 3 3 -3 20 -13 39 -12 22 -24 32
-35 30 -10 -2 -18 -7 -18 -12 0 -4 -14 -13 -30 -20 -17 -7 -33 -16 -35 -20 -6
-10 35 -120 45 -120 19 0 18 36 0 77 -11 26 -18 48 -15 51 3 3 13 -13 22 -36
9 -23 20 -42 25 -42 4 0 -1 18 -12 41 -35 67 -15 55 24 -15 20 -36 47 -78 61
-94 17 -20 25 -44 28 -83 l3 -54 2 56 c1 40 -2 60 -13 69 -8 7 -15 18 -15 24
0 6 12 -2 25 -17 23 -25 25 -36 23 -103 -1 -54 -5 -74 -15 -74 -7 0 -13 9 -13
19 0 11 -4 23 -10 26 -6 3 -10 -4 -10 -17 0 -28 37 -55 53 -39 13 13 61 -64
59 -95 -1 -12 7 -29 18 -39 17 -16 21 -16 35 -2 14 15 14 19 -4 53 -11 20 -17
42 -14 50 2 7 -9 32 -25 56 -37 51 -45 93 -20 93 10 0 25 8 35 18 17 17 17 19
-17 50 -51 46 -87 99 -82 121 2 10 0 16 -6 12 -10 -6 -68 62 -59 70 3 3 15 -9
27 -26 12 -17 24 -29 27 -26 3 3 -5 19 -17 36 -12 17 -20 33 -17 36 2 3 19
-18 36 -45 31 -48 61 -81 61 -66 0 16 -84 125 -96 125 -7 0 -32 25 -55 55 -23
30 -44 55 -46 55 -3 0 -3 -24 -1 -52 3 -47 1 -53 -17 -53 -18 0 -20 8 -23 83
-2 70 0 83 14 89 12 4 26 -5 48 -32 71 -88 67 -87 64 -25 -3 45 0 55 15 58 15
3 17 -6 17 -86 0 -76 3 -91 20 -107 22 -20 28 -8 8 15 -7 8 -1 4 15 -9 28 -25
39 -54 12 -31 -8 7 -15 8 -15 2 0 -5 7 -15 15 -22 12 -10 15 -10 15 0 0 9 7 7
20 -5 11 -10 20 -13 20 -7 0 6 -4 14 -10 17 -5 3 -15 16 -20 28 -6 12 5 4 24
-18 33 -37 36 -38 36 -16 0 20 4 22 25 17 24 -6 218 -193 249 -241 27 -41 50
-48 80 -24 36 28 32 70 -6 83 -33 12 -245 217 -275 266 -23 39 -21 62 5 53 12
-4 10 1 -7 20 -14 15 -19 27 -13 27 6 0 13 -4 16 -9 4 -5 30 -28 59 -51 50
-41 49 -40 -13 21 -46 45 -67 60 -73 52 -5 -8 -29 -13 -57 -13 -38 0 -50 -4
-50 -15 0 -11 11 -15 40 -15 33 0 40 -3 40 -20 0 -17 -7 -20 -40 -20 -29 0
-40 -4 -40 -15 0 -11 12 -15 51 -15 l51 0 148 -146 c82 -80 153 -143 159 -140
5 4 12 2 16 -4 8 -13 -25 -62 -39 -58 -6 2 -76 71 -156 153 l-145 150 -59 5
-59 5 1 85 1 85 74 1 c69 2 76 0 106 -28 18 -17 34 -29 35 -27 2 2 -7 20 -19
40 -18 28 -34 39 -69 48 -60 15 -107 14 -129 -4 -15 -10 -25 -11 -43 -3 -18 9
-29 7 -49 -6 -23 -15 -29 -16 -48 -3 -26 17 -142 16 -159 -1 -8 -8 -20 -5 -47
9 -45 24 -67 24 -116 -1 -34 -18 -41 -18 -55 -5 -21 19 -44 19 -60 0 -16 -19
-34 -19 -50 0 -8 9 -28 15 -54 14 -22 0 -66 2 -96 6 -33 3 -61 2 -70 -5z
m-338 -97 l3 -68 33 -3 32 -3 0 70 c0 64 2 71 20 71 18 0 20 -7 20 -73 0 -93
-16 -112 -84 -105 -32 4 -49 1 -62 -11 -16 -14 -15 -13 1 7 14 17 16 25 7 34
-7 7 -12 41 -12 80 0 61 2 68 20 68 17 0 19 -8 22 -67z m193 11 c10 -30 22
-57 26 -60 4 -2 15 20 24 48 20 62 28 73 49 65 12 -5 10 -19 -19 -89 -42 -106
-56 -110 -95 -25 -42 93 -47 117 -23 117 14 0 24 -14 38 -56z m273 39 c-2 -14
-15 -19 -51 -21 -38 -3 -47 -7 -47 -22 0 -15 6 -17 40 -13 36 5 40 3 40 -16 0
-18 -6 -21 -40 -21 -29 0 -40 -4 -40 -15 0 -11 12 -15 50 -15 44 0 50 -3 50
-20 0 -19 -5 -21 -67 -18 l-68 3 -3 88 -3 87 71 0 c63 0 71 -2 68 -17z m110
-40 l42 -56 0 57 c0 50 2 56 20 56 20 0 21 -5 18 -87 -4 -109 -16 -115 -75
-36 l-43 56 0 -57 c0 -49 -2 -56 -20 -56 -19 0 -20 7 -20 90 0 79 2 90 18 90
9 0 36 -26 60 -57z m260 41 c47 -33 15 -60 -33 -28 -23 15 -27 15 -50 0 -31
-20 -33 -58 -5 -86 24 -24 39 -25 66 -5 18 14 18 14 -8 15 -21 0 -28 5 -28 21
0 18 5 20 43 17 l42 -3 3 -45 3 -46 -65 -2 c-61 -1 -66 0 -91 30 -22 26 -26
39 -21 67 10 68 89 104 144 65z m102 -75 c0 -81 -2 -90 -17 -87 -15 3 -19 16
-21 77 -3 83 1 101 23 101 12 0 15 -16 15 -91z m-1001 -46 c-8 -9 -81 -82
-162 -162 -82 -80 -143 -147 -137 -149 7 -3 82 65 167 149 86 85 151 146 147
137 -12 -22 -314 -328 -324 -328 -13 0 -41 50 -35 60 4 6 11 8 16 4 6 -3 82
64 169 150 143 139 199 189 159 139z m216 -195 c-20 -35 -46 -73 -57 -85 -19
-20 -20 -31 -15 -98 4 -54 2 -75 -6 -75 -8 0 -12 25 -11 80 1 71 4 84 26 108
14 15 40 53 58 85 17 32 34 56 37 53 3 -2 -12 -33 -32 -68z m153 -101 c2 -8
-6 -21 -17 -27 -19 -9 -21 -8 -21 13 0 39 31 50 38 14z m-48 -92 c0 -8 0 -18
1 -22 0 -4 -4 -9 -10 -11 -6 -2 -11 8 -11 22 0 14 5 26 10 26 6 0 10 -7 10
-15z"/>
<path d="M2399 1007 c8 -10 28 -17 47 -17 19 0 34 -4 34 -10 0 -13 71 -60 90
-60 8 1 2 8 -15 17 -16 8 -42 28 -57 44 -16 17 -37 29 -52 29 -13 0 -33 3 -43
7 -16 6 -16 5 -4 -10z"/>
<path d="M753 993 c-7 -2 -13 -11 -13 -18 0 -19 -108 -115 -130 -115 -10 0
-31 -15 -47 -34 -15 -18 -41 -41 -56 -51 -19 -12 -27 -25 -25 -39 5 -35 36
-30 79 13 22 22 53 46 70 53 30 13 36 23 20 32 -11 7 -106 -66 -124 -94 -14
-24 -37 -26 -37 -5 0 8 6 15 13 15 16 0 67 52 67 68 0 7 6 12 14 12 7 0 26 6
41 14 42 22 166 136 160 147 -7 10 -13 10 -32 2z"/>
<path d="M725 903 c-38 -36 -52 -52 -30 -35 38 29 114 103 104 102 -2 -1 -35
-31 -74 -67z"/>
<path d="M2381 844 c6 -8 20 -14 30 -14 11 0 19 -6 19 -13 0 -8 9 -22 20 -32
28 -26 25 -2 -5 33 -14 16 -36 32 -50 34 -20 4 -23 3 -14 -8z"/>
<path d="M2595 840 c-3 -6 3 -10 14 -10 12 0 21 -4 21 -9 0 -5 20 -17 45 -28
25 -10 45 -24 45 -32 0 -8 3 -12 6 -8 14 13 -8 47 -31 47 -13 0 -27 5 -30 10
-11 18 -63 41 -70 30z"/>
<path d="M2357 834 c-5 -5 25 -34 76 -73 15 -12 17 -12 12 1 -8 20 -81 79 -88
72z"/>
<path d="M2589 803 c33 -29 61 -38 61 -21 0 4 -4 8 -10 8 -20 0 -25 2 -40 14
-8 7 -22 16 -30 20 -8 4 0 -5 19 -21z"/>
<path d="M2197 813 c-8 -12 267 -287 282 -282 6 2 -54 69 -133 148 -79 79
-146 139 -149 134z"/>
<path d="M2480 765 c0 -8 -4 -15 -10 -15 -17 0 -11 -25 9 -37 15 -10 22 -9 35
6 15 16 14 19 -4 39 -24 26 -30 27 -30 7z"/>
<path d="M820 670 c-36 -40 -69 -80 -74 -89 -5 -9 -22 -31 -39 -49 -24 -25
-28 -35 -19 -44 9 -9 12 -7 12 10 0 12 5 22 10 22 16 0 59 53 60 73 0 9 6 17
13 17 6 0 22 15 35 34 24 35 72 84 72 73 0 -6 -86 -124 -100 -137 -20 -19 -80
-110 -72 -110 13 0 112 121 112 137 0 6 12 21 26 32 14 11 23 24 20 29 -3 5 6
20 19 32 26 25 35 51 11 31 -10 -9 -15 -9 -18 0 -2 6 -33 -22 -68 -61z"/>
<path d="M2090 725 c0 -4 18 -29 40 -55 22 -26 40 -53 40 -60 0 -6 18 -29 40
-51 22 -22 40 -46 40 -54 0 -8 9 -19 20 -25 20 -11 20 -10 3 18 -10 16 -30 44
-46 63 -63 79 -97 125 -97 133 0 14 39 -25 58 -56 9 -16 22 -28 29 -28 7 0 13
-8 13 -18 0 -19 66 -92 83 -92 6 0 -5 16 -26 36 -20 20 -37 41 -37 48 -1 16
-36 56 -50 56 -6 0 -9 3 -7 8 2 4 -11 23 -30 42 -18 19 -33 28 -33 21 0 -10
-5 -9 -20 4 -11 10 -20 15 -20 10z"/>
<path d="M1080 681 c-11 -23 -17 -41 -12 -41 10 0 45 70 38 77 -2 3 -14 -13
-26 -36z"/>
<path d="M1830 703 c0 -17 50 -155 63 -171 5 -7 11 -29 13 -48 2 -20 7 -41 12
-48 5 -6 12 -27 16 -46 3 -19 12 -47 20 -62 15 -28 12 -38 -11 -38 -7 0 -12 8
-11 17 3 26 -13 93 -22 93 -4 0 -10 23 -14 50 -4 28 -11 50 -16 50 -6 0 -10 8
-10 18 0 22 -47 163 -58 174 -5 5 -16 2 -26 -5 -16 -12 -16 -19 -5 -82 7 -39
16 -74 21 -79 13 -16 9 -29 -6 -17 -7 6 -19 45 -26 86 -7 42 -16 78 -20 80
-12 7 22 -149 36 -165 17 -21 54 -23 54 -4 0 8 -7 17 -15 20 -17 7 -21 34 -4
34 5 0 7 5 4 10 -3 6 -2 10 3 10 20 0 30 -46 17 -83 -13 -37 -10 -83 6 -93 15
-9 10 -34 -6 -34 -9 0 -15 9 -15 25 0 16 -6 25 -15 25 -8 0 -15 -5 -15 -11 0
-5 5 -7 12 -3 7 4 8 3 4 -4 -8 -13 10 -52 24 -52 6 0 19 9 31 21 20 20 21 20
34 2 7 -11 15 -35 17 -54 2 -29 7 -34 28 -34 30 0 39 29 16 54 -9 10 -18 36
-20 58 -2 22 -7 46 -11 53 -5 8 -4 11 3 6 6 -4 21 -1 33 6 17 10 23 10 26 0 8
-22 23 -1 23 33 0 24 -11 49 -37 84 -20 27 -41 47 -45 45 -5 -3 8 -25 27 -48
32 -40 46 -77 28 -76 -14 1 -60 44 -66 63 -4 9 -11 17 -17 17 -15 0 20 -59 43
-74 21 -13 22 -36 2 -36 -8 0 -15 5 -15 12 0 6 -12 26 -26 45 -14 19 -39 69
-54 111 -16 42 -29 72 -30 65z m-6 -66 c8 -26 13 -47 11 -47 -2 0 -10 -3 -19
-6 -11 -4 -18 5 -26 36 -6 23 -9 47 -7 53 3 7 8 -5 12 -26 4 -20 12 -40 17
-43 6 -4 8 1 5 12 -13 42 -19 79 -13 73 3 -3 12 -27 20 -52z m61 -177 c7 -12
-20 -42 -29 -33 -3 4 -6 15 -6 25 0 19 25 25 35 8z"/>
<path d="M1473 633 c-6 -27 -8 -50 -3 -53 10 -7 7 -50 -4 -53 -5 -1 -11 18
-13 43 -7 74 -13 59 -15 -41 -1 -52 -3 -112 -3 -134 -1 -26 -7 -41 -16 -43
-12 -2 -13 22 -11 147 2 82 0 151 -5 154 -4 3 -8 -56 -8 -132 0 -92 -4 -145
-13 -163 -7 -16 -11 -37 -7 -48 4 -14 2 -20 -8 -20 -19 0 -28 11 -19 24 23 36
32 91 31 201 -1 84 -4 110 -10 85 -7 -33 -7 -32 -6 12 3 62 -10 47 -15 -17 -2
-38 -8 -51 -21 -53 -14 -3 -17 4 -16 35 1 21 5 49 10 63 7 19 8 13 5 -24 -2
-30 -1 -44 5 -35 12 20 11 76 -2 84 -6 4 -12 5 -14 4 -9 -10 -24 -163 -16
-168 5 -3 11 -15 14 -26 4 -16 5 -15 6 6 1 27 18 49 38 49 20 0 17 -121 -4
-167 -10 -21 -22 -41 -28 -45 -5 -4 -1 -15 10 -28 16 -18 21 -19 39 -6 12 7
21 19 21 26 0 7 9 18 20 24 31 17 45 39 33 53 -11 14 -2 53 13 53 5 0 9 -1 9
-2 0 -2 3 -75 6 -163 4 -88 8 -162 10 -164 2 -2 4 125 4 282 0 158 -1 287 -3
287 -2 0 -9 -21 -14 -47z"/>
<path d="M1630 659 c-16 -4 -19 -7 -7 -8 13 -1 17 -10 19 -38 l1 -38 7 45 c6
37 7 39 9 15 1 -16 6 -39 11 -50 6 -13 7 -3 4 30 -3 36 -2 45 5 30 13 -27 14
-105 1 -105 -20 0 -49 39 -53 72 -2 18 -5 -24 -5 -94 -2 -129 2 -158 21 -158
7 0 7 4 -1 12 -7 7 -12 41 -12 80 0 53 4 70 16 75 8 3 22 -1 29 -8 11 -12 10
-22 -2 -62 -15 -44 -15 -49 2 -67 10 -11 19 -39 21 -62 l4 -43 -20 25 c-11 14
-20 28 -20 33 0 14 -20 7 -20 -8 0 -8 5 -15 10 -15 6 0 10 -7 10 -16 0 -26
-33 -11 -36 16 -2 14 -8 92 -13 173 -6 81 -13 152 -16 158 -16 25 -25 -11 -23
-94 l2 -92 6 95 c6 94 6 94 10 30 2 -36 4 -104 4 -153 1 -70 -2 -87 -13 -85
-9 2 -15 17 -16 43 0 22 -2 85 -3 140 -2 69 -5 95 -12 85 -5 -8 -10 -10 -10
-4 0 5 -7 19 -15 30 -13 17 -14 -13 -14 -266 0 -187 3 -277 10 -262 5 13 8 73
7 133 -1 60 2 112 5 116 4 3 15 -4 26 -16 10 -12 25 -20 32 -19 8 2 15 -7 17
-19 4 -26 37 -39 57 -23 8 7 16 10 16 6 5 -23 4 -33 -3 -47 -5 -11 -1 -23 13
-35 19 -17 21 -18 30 -1 6 9 17 17 26 17 12 0 14 -7 10 -34 -4 -26 -1 -39 14
-52 21 -19 21 -19 37 10 7 14 7 28 0 45 -9 24 -17 99 -19 180 -1 21 5 39 15
46 23 17 20 27 -13 60 -25 23 -32 42 -42 102 -6 40 -14 71 -16 69 -8 -8 17
-180 28 -190 5 -6 9 -47 9 -91 0 -45 3 -85 7 -89 4 -4 8 -21 9 -39 0 -18 4
-47 8 -65 6 -24 4 -32 -7 -32 -10 0 -14 13 -15 44 0 25 -4 51 -8 58 -4 7 -7
52 -5 100 3 105 -14 120 -23 21 -4 -38 -8 -86 -10 -108 -2 -29 -8 -41 -21 -43
-15 -3 -16 0 -10 25 34 125 44 232 30 323 l-13 85 5 -78 c4 -52 2 -82 -7 -92
-6 -8 -10 -29 -8 -47 1 -18 -1 -33 -7 -33 -12 0 -7 75 7 92 10 12 2 110 -12
149 -9 22 -20 25 -60 13z m-84 -228 c-4 -5 -1 -11 6 -13 15 -5 3 -38 -15 -38
-15 0 -18 42 -3 52 15 10 18 10 12 -1z"/>
<path d="M1424 560 c0 -52 1 -74 3 -47 2 26 2 68 0 95 -2 26 -3 4 -3 -48z"/>
</g>
</svg>
